<svg width="79" height="30" viewBox="0 0 79 30" fill="none" xmlns="http://www.w3.org/2000/svg">
<path d="M-0.01 10.94C-0.01 8.86 0.44 7.01 1.34 5.39C2.24 3.75 3.49 2.48 5.09 1.58C6.71 0.659999 8.54 0.199999 10.58 0.199999C13.08 0.199999 15.22 0.859999 17 2.18C18.78 3.5 19.97 5.3 20.57 7.58H14.93C14.51 6.7 13.91 6.03 13.13 5.57C12.37 5.11 11.5 4.88 10.52 4.88C8.94 4.88 7.66 5.43 6.68 6.53C5.7 7.63 5.21 9.1 5.21 10.94C5.21 12.78 5.7 14.25 6.68 15.35C7.66 16.45 8.94 17 10.52 17C11.5 17 12.37 16.77 13.13 16.31C13.91 15.85 14.51 15.18 14.93 14.3H20.57C19.97 16.58 18.78 18.38 17 19.7C15.22 21 13.08 21.65 10.58 21.65C8.54 21.65 6.71 21.2 5.09 20.3C3.49 19.38 2.24 18.11 1.34 16.49C0.44 14.87 -0.01 13.02 -0.01 10.94ZM40.8116 4.76L30.3116 29.45H24.7916L28.6316 20.93L21.8216 4.76H27.5516L31.4216 15.23L35.2616 4.76H40.8116ZM52.8666 4.58C54.8266 4.58 56.3866 5.22 57.5466 6.5C58.7266 7.76 59.3166 9.5 59.3166 11.72V21.5H54.2166V12.41C54.2166 11.29 53.9266 10.42 53.3466 9.8C52.7666 9.18 51.9866 8.87 51.0066 8.87C50.0266 8.87 49.2466 9.18 48.6666 9.8C48.0866 10.42 47.7966 11.29 47.7966 12.41V21.5H42.6666V4.76H47.7966V6.98C48.3166 6.24 49.0166 5.66 49.8966 5.24C50.7766 4.8 51.7666 4.58 52.8666 4.58ZM61.8615 13.13C61.8615 11.39 62.2115 9.87 62.9115 8.57C63.6315 7.27 64.6215 6.27 65.8815 5.57C67.1615 4.87 68.6215 4.52 70.2615 4.52C72.3615 4.52 74.1115 5.07 75.5115 6.17C76.9315 7.27 77.8615 8.82 78.3015 10.82H72.8415C72.3815 9.54 71.4915 8.9 70.1715 8.9C69.2315 8.9 68.4815 9.27 67.9215 10.01C67.3615 10.73 67.0815 11.77 67.0815 13.13C67.0815 14.49 67.3615 15.54 67.9215 16.28C68.4815 17 69.2315 17.36 70.1715 17.36C71.4915 17.36 72.3815 16.72 72.8415 15.44H78.3015C77.8615 17.4 76.9315 18.94 75.5115 20.06C74.0915 21.18 72.3415 21.74 70.2615 21.74C68.6215 21.74 67.1615 21.39 65.8815 20.69C64.6215 19.99 63.6315 18.99 62.9115 17.69C62.2115 16.39 61.8615 14.87 61.8615 13.13Z" fill="black"/>
</svg>
